<?xml version="1.0" encoding="utf-8"?>
<!-- Generator: Adobe Illustrator 25.2.3, SVG Export Plug-In . SVG Version: 6.00 Build 0)  -->
<svg version="1.1" id="Layer_1" xmlns="http://www.w3.org/2000/svg" xmlns:xlink="http://www.w3.org/1999/xlink" x="0px" y="0px"
	 viewBox="0 0 1440 1024" style="enable-background:new 0 0 1440 1024;" xml:space="preserve">
<style type="text/css">
	.st0{clip-path:url(#SVGID_2_);}
	.st1{fill:#4D73E8;}
	.st2{fill:#3258A5;}
	.st3{opacity:0.74;}
	.st4{opacity:0.74;fill:#444444;enable-background:new    ;}
	.st5{opacity:0.79;fill:#444444;enable-background:new    ;}
	.st6{fill:#F2F2F2;}
	.st7{fill:none;stroke:#444444;stroke-width:0.21;stroke-miterlimit:10;}
</style>
<g>
	<defs>
		<rect id="SVGID_1_" x="-22" y="-10" width="1593" height="1044"/>
	</defs>
	<clipPath id="SVGID_2_">
		<use xlink:href="#SVGID_1_"  style="overflow:visible;"/>
	</clipPath>
	<g class="st0">
		<path class="st1" d="M1399.3,57.7c0,0.5-0.2,1-0.4,1.4c-0.3,0.4-0.7,0.8-1.2,0.9c-0.5,0.2-1,0.2-1.5,0.1c-0.5-0.1-1-0.4-1.3-0.7
			c-0.4-0.4-0.6-0.8-0.7-1.3c-0.1-0.5-0.1-1,0.2-1.5c0.2-0.5,0.5-0.9,0.9-1.2c0.4-0.3,0.9-0.4,1.4-0.4c0.3,0,0.7,0.1,1,0.2
			c0.3,0.1,0.6,0.3,0.9,0.6c0.2,0.2,0.4,0.5,0.6,0.8C1399.2,57,1399.3,57.3,1399.3,57.7L1399.3,57.7z"/>
		<path class="st1" d="M1415.2,57.7c0,0.5-0.2,1-0.5,1.5c-0.3,0.4-0.7,0.8-1.2,1c-0.5,0.2-1,0.2-1.5,0.1c-0.5-0.1-1-0.4-1.3-0.7
			c-0.4-0.4-0.6-0.8-0.7-1.3c-0.1-0.5-0.1-1,0.2-1.5c0.2-0.5,0.5-0.9,1-1.2c0.4-0.3,0.9-0.4,1.5-0.4c0.7,0,1.4,0.3,1.8,0.8
			C1414.9,56.3,1415.2,57,1415.2,57.7L1415.2,57.7z"/>
		<path class="st1" d="M1431,57.7c0,0.5-0.2,1-0.5,1.4c-0.3,0.4-0.7,0.8-1.2,0.9c-0.5,0.2-1,0.2-1.5,0.1c-0.5-0.1-1-0.4-1.3-0.7
			c-0.4-0.4-0.6-0.8-0.7-1.3c-0.1-0.5-0.1-1,0.2-1.5c0.2-0.5,0.5-0.9,1-1.2c0.4-0.3,0.9-0.4,1.4-0.4c0.3,0,0.7,0.1,1,0.2
			c0.3,0.1,0.6,0.3,0.8,0.6c0.2,0.2,0.4,0.5,0.6,0.8C1431,57,1431,57.3,1431,57.7L1431,57.7z"/>
		<path class="st1" d="M1399.3,72.7c0,0.5-0.2,1-0.4,1.4c-0.3,0.4-0.7,0.8-1.2,0.9c-0.5,0.2-1,0.2-1.5,0.1c-0.5-0.1-1-0.4-1.3-0.7
			c-0.4-0.4-0.6-0.8-0.7-1.3c-0.1-0.5-0.1-1,0.2-1.5c0.2-0.5,0.5-0.9,0.9-1.2c0.4-0.3,0.9-0.4,1.4-0.4c0.3,0,0.7,0.1,1,0.2
			c0.3,0.1,0.6,0.3,0.9,0.6c0.2,0.2,0.4,0.5,0.6,0.8C1399.2,72,1399.3,72.4,1399.3,72.7L1399.3,72.7z"/>
		<path class="st1" d="M1415.2,72.7c0,0.5-0.2,1-0.5,1.5c-0.3,0.4-0.7,0.8-1.2,1c-0.5,0.2-1,0.2-1.5,0.1c-0.5-0.1-1-0.4-1.3-0.7
			c-0.4-0.4-0.6-0.8-0.7-1.3c-0.1-0.5-0.1-1,0.2-1.5c0.2-0.5,0.5-0.9,1-1.2c0.4-0.3,0.9-0.4,1.5-0.4c0.7,0,1.4,0.3,1.8,0.8
			C1414.9,71.4,1415.2,72,1415.2,72.7L1415.2,72.7z"/>
		<path class="st1" d="M1431,72.7c0,0.5-0.2,1-0.5,1.4c-0.3,0.4-0.7,0.8-1.2,0.9c-0.5,0.2-1,0.2-1.5,0.1c-0.5-0.1-1-0.4-1.3-0.7
			c-0.4-0.4-0.6-0.8-0.7-1.3s-0.1-1,0.2-1.5c0.2-0.5,0.5-0.9,1-1.2c0.4-0.3,0.9-0.4,1.4-0.4c0.3,0,0.7,0.1,1,0.2
			c0.3,0.1,0.6,0.3,0.8,0.6c0.2,0.2,0.4,0.5,0.6,0.8C1431,72,1431,72.4,1431,72.7L1431,72.7z"/>
		<path class="st1" d="M1399.3,87.8c0,0.5-0.2,1-0.4,1.4c-0.3,0.4-0.7,0.8-1.2,1c-0.5,0.2-1,0.2-1.5,0.1c-0.5-0.1-1-0.3-1.3-0.7
			c-0.4-0.4-0.6-0.8-0.7-1.3c-0.1-0.5-0.1-1,0.2-1.5c0.2-0.5,0.5-0.9,0.9-1.2c0.4-0.3,0.9-0.4,1.4-0.4c0.7,0,1.4,0.3,1.8,0.8
			C1399,86.4,1399.3,87.1,1399.3,87.8z"/>
		<path class="st1" d="M1415.2,87.8c0,0.5-0.2,1-0.4,1.5c-0.3,0.4-0.7,0.8-1.2,1c-0.5,0.2-1,0.3-1.5,0.2c-0.5-0.1-1-0.3-1.4-0.7
			c-0.4-0.4-0.6-0.8-0.7-1.3c-0.1-0.5-0.1-1,0.2-1.5c0.2-0.5,0.5-0.9,1-1.2c0.4-0.3,0.9-0.4,1.5-0.4c0.7,0,1.3,0.3,1.8,0.8
			C1414.9,86.4,1415.2,87.1,1415.2,87.8z"/>
		<path class="st1" d="M1431,87.8c0,0.5-0.2,1-0.4,1.4c-0.3,0.4-0.7,0.8-1.2,1c-0.5,0.2-1,0.2-1.5,0.1c-0.5-0.1-1-0.3-1.3-0.7
			c-0.4-0.4-0.6-0.8-0.7-1.3c-0.1-0.5-0.1-1,0.2-1.5c0.2-0.5,0.5-0.9,1-1.2c0.4-0.3,0.9-0.4,1.4-0.4c0.7,0,1.4,0.3,1.8,0.8
			C1430.8,86.4,1431,87.1,1431,87.8z"/>
		<path class="st1" d="M435.1,847.3c0,0.5-0.2,1-0.4,1.5c-0.3,0.4-0.7,0.8-1.2,1c-0.5,0.2-1,0.2-1.5,0.1c-0.5-0.1-1-0.3-1.3-0.7
			s-0.6-0.8-0.7-1.3c-0.1-0.5,0-1,0.1-1.5c0.2-0.5,0.5-0.9,1-1.2c0.4-0.3,0.9-0.4,1.5-0.4c0.7,0,1.4,0.3,1.9,0.8
			C434.8,846,435.1,846.7,435.1,847.3z"/>
		<path class="st1" d="M450.9,847.3c0,0.5-0.2,1-0.4,1.4c-0.3,0.4-0.7,0.8-1.2,0.9c-0.5,0.2-1,0.2-1.5,0.1c-0.5-0.1-1-0.4-1.3-0.7
			c-0.4-0.4-0.6-0.8-0.7-1.3c-0.1-0.5,0-1,0.2-1.5c0.2-0.5,0.5-0.9,1-1.2c0.4-0.3,0.9-0.4,1.4-0.4c0.7,0,1.4,0.3,1.8,0.8
			C450.6,846,450.9,846.7,450.9,847.3L450.9,847.3z"/>
		<path class="st1" d="M466.7,847.3c0,0.5-0.2,1-0.4,1.5c-0.3,0.4-0.7,0.8-1.2,1c-0.5,0.2-1,0.2-1.5,0.1c-0.5-0.1-1-0.3-1.3-0.7
			s-0.6-0.8-0.7-1.3c-0.1-0.5,0-1,0.1-1.5c0.2-0.5,0.5-0.9,1-1.2c0.4-0.3,0.9-0.4,1.5-0.4c0.7,0,1.4,0.3,1.9,0.8
			C466.5,846,466.7,846.7,466.7,847.3L466.7,847.3z"/>
		<path class="st1" d="M482.6,847.3c0,0.5-0.2,1-0.4,1.4c-0.3,0.4-0.7,0.8-1.2,0.9c-0.5,0.2-1,0.2-1.5,0.1c-0.5-0.1-1-0.4-1.3-0.7
			c-0.4-0.4-0.6-0.8-0.7-1.3c-0.1-0.5,0-1,0.2-1.5c0.2-0.5,0.5-0.9,1-1.2c0.4-0.3,0.9-0.4,1.4-0.4c0.7,0,1.4,0.3,1.8,0.8
			C482.3,846,482.6,846.7,482.6,847.3L482.6,847.3z"/>
		<path class="st1" d="M498.5,847.3c0,0.5-0.2,1-0.4,1.5c-0.3,0.4-0.7,0.8-1.2,1c-0.5,0.2-1,0.2-1.5,0.1c-0.5-0.1-1-0.3-1.3-0.7
			s-0.6-0.8-0.7-1.3c-0.1-0.5,0-1,0.1-1.5c0.2-0.5,0.5-0.9,1-1.2c0.4-0.3,0.9-0.4,1.5-0.4c0.7,0,1.4,0.3,1.9,0.8
			C498.2,846,498.5,846.7,498.5,847.3z"/>
		<path class="st1" d="M514.4,847.3c0,0.5-0.2,1-0.4,1.4c-0.3,0.4-0.7,0.8-1.2,0.9c-0.5,0.2-1,0.2-1.5,0.1c-0.5-0.1-1-0.4-1.3-0.7
			c-0.4-0.4-0.6-0.8-0.7-1.3c-0.1-0.5,0-1,0.2-1.5c0.2-0.5,0.5-0.9,1-1.2c0.4-0.3,0.9-0.4,1.4-0.4c0.7,0,1.4,0.3,1.8,0.8
			C514.1,846,514.4,846.7,514.4,847.3L514.4,847.3z"/>
		<path class="st1" d="M435.1,862.4c0,0.5-0.1,1-0.4,1.5c-0.3,0.4-0.7,0.8-1.2,1c-0.5,0.2-1,0.3-1.5,0.2c-0.5-0.1-1-0.3-1.3-0.7
			c-0.4-0.4-0.6-0.8-0.7-1.3c-0.1-0.5-0.1-1,0.1-1.5c0.2-0.5,0.5-0.9,1-1.2c0.4-0.3,0.9-0.4,1.5-0.4c0.7,0,1.4,0.3,1.8,0.8
			C434.8,861,435.1,861.7,435.1,862.4z"/>
		<path class="st1" d="M450.9,862.4c0,0.5-0.2,1-0.4,1.4c-0.3,0.4-0.7,0.8-1.2,1c-0.5,0.2-1,0.2-1.5,0.1c-0.5-0.1-1-0.3-1.3-0.7
			c-0.4-0.4-0.6-0.8-0.7-1.3c-0.1-0.5,0-1,0.1-1.5c0.2-0.5,0.5-0.9,1-1.2c0.4-0.3,0.9-0.4,1.4-0.4c0.7,0,1.3,0.3,1.8,0.8
			C450.6,861,450.9,861.7,450.9,862.4L450.9,862.4z"/>
		<path class="st1" d="M466.7,862.4c0,0.5-0.1,1-0.4,1.5c-0.3,0.4-0.7,0.8-1.2,1c-0.5,0.2-1,0.3-1.5,0.2c-0.5-0.1-1-0.3-1.3-0.7
			c-0.4-0.4-0.6-0.8-0.7-1.3c-0.1-0.5-0.1-1,0.1-1.5c0.2-0.5,0.5-0.9,1-1.2c0.4-0.3,0.9-0.4,1.5-0.4c0.7,0,1.4,0.3,1.8,0.8
			C466.5,861,466.7,861.7,466.7,862.4L466.7,862.4z"/>
		<path class="st1" d="M482.6,862.4c0,0.5-0.2,1-0.5,1.4c-0.3,0.4-0.7,0.7-1.2,0.9s-1,0.2-1.5,0.1c-0.5-0.1-1-0.4-1.3-0.7
			c-0.4-0.4-0.6-0.8-0.7-1.3c-0.1-0.5,0-1,0.2-1.5c0.2-0.5,0.5-0.9,1-1.2c0.4-0.3,0.9-0.4,1.4-0.4c0.7,0,1.3,0.3,1.8,0.8
			C482.3,861,482.6,861.7,482.6,862.4L482.6,862.4z"/>
		<path class="st1" d="M498.5,862.4c0,0.5-0.1,1-0.4,1.5c-0.3,0.4-0.7,0.8-1.2,1c-0.5,0.2-1,0.3-1.5,0.2c-0.5-0.1-1-0.3-1.3-0.7
			c-0.4-0.4-0.6-0.8-0.7-1.3c-0.1-0.5-0.1-1,0.1-1.5c0.2-0.5,0.5-0.9,1-1.2c0.4-0.3,0.9-0.4,1.5-0.4c0.7,0,1.4,0.3,1.8,0.8
			C498.2,861,498.5,861.7,498.5,862.4z"/>
		<path class="st1" d="M514.4,862.4c0,0.5-0.2,1-0.4,1.4c-0.3,0.4-0.7,0.8-1.2,1c-0.5,0.2-1,0.2-1.5,0.1c-0.5-0.1-1-0.3-1.3-0.7
			c-0.4-0.4-0.6-0.8-0.7-1.3c-0.1-0.5,0-1,0.1-1.5c0.2-0.5,0.5-0.9,1-1.2c0.4-0.3,0.9-0.4,1.4-0.4c0.7,0,1.3,0.3,1.8,0.8
			C514.1,861,514.3,861.7,514.4,862.4L514.4,862.4z"/>
		<path class="st1" d="M435.1,877.5c0,0.5-0.1,1-0.4,1.5c-0.3,0.4-0.7,0.8-1.2,1s-1,0.3-1.5,0.2s-1-0.3-1.3-0.7
			c-0.4-0.4-0.6-0.8-0.7-1.3c-0.1-0.5-0.1-1,0.1-1.5c0.2-0.5,0.5-0.9,1-1.2c0.4-0.3,0.9-0.4,1.5-0.4c0.7,0,1.4,0.3,1.8,0.8
			C434.8,876.1,435.1,876.8,435.1,877.5z"/>
		<path class="st1" d="M450.9,877.5c0,0.5-0.2,1-0.4,1.4c-0.3,0.4-0.7,0.8-1.2,1c-0.5,0.2-1,0.2-1.5,0.1c-0.5-0.1-1-0.3-1.3-0.7
			c-0.4-0.4-0.6-0.8-0.7-1.3c-0.1-0.5,0-1,0.1-1.5c0.2-0.5,0.5-0.9,1-1.2c0.4-0.3,0.9-0.4,1.4-0.4c0.7,0,1.3,0.3,1.8,0.8
			C450.6,876.1,450.9,876.8,450.9,877.5L450.9,877.5z"/>
		<path class="st1" d="M466.7,877.5c0,0.5-0.1,1-0.4,1.5c-0.3,0.4-0.7,0.8-1.2,1s-1,0.3-1.5,0.2s-1-0.3-1.3-0.7
			c-0.4-0.4-0.6-0.8-0.7-1.3c-0.1-0.5-0.1-1,0.1-1.5c0.2-0.5,0.5-0.9,1-1.2c0.4-0.3,0.9-0.4,1.5-0.4c0.7,0,1.4,0.3,1.8,0.8
			C466.5,876.1,466.7,876.8,466.7,877.5L466.7,877.5z"/>
		<path class="st1" d="M482.6,877.5c0,0.5-0.2,1-0.4,1.4c-0.3,0.4-0.7,0.8-1.2,1c-0.5,0.2-1,0.2-1.5,0.1c-0.5-0.1-1-0.3-1.3-0.7
			c-0.4-0.4-0.6-0.8-0.7-1.3c-0.1-0.5,0-1,0.1-1.5c0.2-0.5,0.5-0.9,1-1.2c0.4-0.3,0.9-0.4,1.4-0.4c0.7,0,1.3,0.3,1.8,0.8
			C482.3,876.1,482.6,876.8,482.6,877.5L482.6,877.5z"/>
		<path class="st1" d="M498.5,877.5c0,0.5-0.1,1-0.4,1.5c-0.3,0.4-0.7,0.8-1.2,1s-1,0.3-1.5,0.2s-1-0.3-1.3-0.7
			c-0.4-0.4-0.6-0.8-0.7-1.3c-0.1-0.5-0.1-1,0.1-1.5c0.2-0.5,0.5-0.9,1-1.2c0.4-0.3,0.9-0.4,1.5-0.4c0.7,0,1.4,0.3,1.8,0.8
			C498.2,876.1,498.5,876.8,498.5,877.5z"/>
		<path class="st1" d="M514.4,877.5c0,0.5-0.2,1-0.4,1.4c-0.3,0.4-0.7,0.8-1.2,1c-0.5,0.2-1,0.2-1.5,0.1c-0.5-0.1-1-0.3-1.3-0.7
			c-0.4-0.4-0.6-0.8-0.7-1.3c-0.1-0.5,0-1,0.1-1.5c0.2-0.5,0.5-0.9,1-1.2c0.4-0.3,0.9-0.4,1.4-0.4c0.7,0,1.3,0.3,1.8,0.8
			C514.1,876.1,514.3,876.8,514.4,877.5L514.4,877.5z"/>
		<path class="st1" d="M14.7,55c0,0.7-0.3,1.4-0.8,1.9c-0.5,0.5-1.2,0.8-1.9,0.8c-0.7,0-1.4-0.3-1.8-0.8c-0.5-0.5-0.8-1.2-0.8-1.8
			c0-0.7,0.3-1.3,0.8-1.8c0.5-0.5,1.1-0.8,1.8-0.8c0.7,0,1.4,0.3,1.8,0.8C14.4,53.7,14.7,54.3,14.7,55z"/>
		<path class="st1" d="M30.6,55c0,0.7-0.3,1.4-0.8,1.8c-0.5,0.5-1.1,0.8-1.8,0.8c-0.7,0-1.4-0.3-1.9-0.8c-0.5-0.5-0.8-1.2-0.8-1.9
			c0-0.7,0.3-1.4,0.8-1.8c0.5-0.5,1.2-0.8,1.8-0.8c0.7,0,1.3,0.3,1.8,0.8C30.3,53.7,30.6,54.3,30.6,55L30.6,55z"/>
		<path class="st1" d="M46.5,55c0,0.7-0.3,1.4-0.8,1.9c-0.5,0.5-1.2,0.8-1.9,0.8c-0.7,0-1.4-0.3-1.8-0.8c-0.5-0.5-0.8-1.2-0.8-1.8
			c0-0.7,0.3-1.3,0.8-1.8c0.5-0.5,1.1-0.8,1.8-0.8c0.7,0,1.4,0.3,1.8,0.8C46.2,53.7,46.5,54.3,46.5,55z"/>
		<path class="st1" d="M62.3,55c0,0.7-0.3,1.4-0.8,1.8c-0.5,0.5-1.1,0.8-1.8,0.8c-0.7,0-1.4-0.3-1.9-0.8c-0.5-0.5-0.8-1.2-0.8-1.9
			c0-0.7,0.3-1.4,0.8-1.8c0.5-0.5,1.2-0.8,1.8-0.8c0.7,0,1.3,0.3,1.8,0.8C62,53.7,62.3,54.3,62.3,55L62.3,55z"/>
		<path class="st1" d="M78.2,55c0,0.7-0.3,1.3-0.7,1.8s-1.1,0.8-1.8,0.8c-0.3,0-0.7-0.1-1-0.2c-0.3-0.1-0.6-0.3-0.9-0.6
			c-0.2-0.2-0.4-0.5-0.6-0.9S73,55.4,73,55c0-0.3,0.1-0.7,0.2-1c0.1-0.3,0.3-0.6,0.6-0.8c0.2-0.2,0.5-0.4,0.9-0.6
			c0.3-0.1,0.7-0.2,1-0.2c0.7,0,1.3,0.3,1.8,0.8C77.9,53.7,78.2,54.4,78.2,55L78.2,55z"/>
		<path class="st1" d="M94.1,55c0,0.5-0.1,1-0.4,1.5c-0.3,0.4-0.7,0.8-1.2,1c-0.5,0.2-1,0.3-1.5,0.2c-0.5-0.1-1-0.4-1.3-0.7
			c-0.4-0.4-0.6-0.8-0.7-1.3c-0.1-0.5,0-1,0.2-1.5c0.2-0.5,0.5-0.9,1-1.2c0.4-0.3,0.9-0.4,1.5-0.4c0.7,0,1.3,0.3,1.8,0.8
			C93.8,53.7,94.1,54.3,94.1,55L94.1,55z"/>
		<path class="st1" d="M14.7,70.1c0,0.7-0.3,1.4-0.8,1.9c-0.5,0.5-1.2,0.8-1.9,0.8c-0.7,0-1.4-0.3-1.8-0.8c-0.5-0.5-0.8-1.2-0.8-1.8
			c0-0.7,0.3-1.3,0.8-1.8c0.5-0.5,1.1-0.8,1.8-0.8c0.7,0,1.4,0.3,1.8,0.8C14.4,68.7,14.7,69.4,14.7,70.1z"/>
		<path class="st1" d="M30.6,70.1c0,0.7-0.3,1.4-0.8,1.8c-0.5,0.5-1.1,0.8-1.8,0.8c-0.7,0-1.4-0.3-1.9-0.8c-0.5-0.5-0.8-1.2-0.8-1.9
			c0-0.7,0.3-1.4,0.8-1.8c0.5-0.5,1.2-0.8,1.8-0.8c0.7,0,1.3,0.3,1.8,0.8C30.3,68.8,30.6,69.4,30.6,70.1z"/>
		<path class="st1" d="M46.5,70.1c0,0.7-0.3,1.4-0.8,1.9c-0.5,0.5-1.2,0.8-1.9,0.8c-0.7,0-1.4-0.3-1.8-0.8c-0.5-0.5-0.8-1.2-0.8-1.8
			c0-0.7,0.3-1.3,0.8-1.8c0.5-0.5,1.1-0.8,1.8-0.8c0.7,0,1.4,0.3,1.8,0.8C46.2,68.7,46.5,69.4,46.5,70.1z"/>
		<path class="st1" d="M62.3,70.1c0,0.7-0.3,1.4-0.8,1.8c-0.5,0.5-1.1,0.8-1.8,0.8c-0.7,0-1.4-0.3-1.9-0.8c-0.5-0.5-0.8-1.2-0.8-1.9
			c0-0.7,0.3-1.4,0.8-1.8c0.5-0.5,1.2-0.8,1.8-0.8c0.7,0,1.3,0.3,1.8,0.8C62,68.8,62.3,69.4,62.3,70.1z"/>
		<path class="st1" d="M78.2,70.1c0,0.7-0.3,1.3-0.7,1.8c-0.5,0.5-1.1,0.8-1.8,0.8c-0.7,0-1.4-0.3-1.8-0.8c-0.5-0.5-0.8-1.2-0.8-1.8
			c0-0.7,0.3-1.3,0.8-1.8s1.1-0.8,1.8-0.8c0.7,0,1.3,0.3,1.8,0.8C77.9,68.8,78.2,69.4,78.2,70.1z"/>
		<path class="st1" d="M94.1,70.1c0,0.5-0.1,1-0.4,1.5c-0.3,0.4-0.7,0.8-1.2,1c-0.5,0.2-1,0.3-1.5,0.2c-0.5-0.1-1-0.4-1.3-0.7
			c-0.4-0.4-0.6-0.8-0.7-1.3c-0.1-0.5,0-1,0.2-1.5c0.2-0.5,0.5-0.9,1-1.2c0.4-0.3,0.9-0.4,1.5-0.4c0.7,0,1.3,0.3,1.8,0.8
			C93.8,68.8,94.1,69.4,94.1,70.1z"/>
		<path class="st1" d="M12.1,87.8c1.4,0,2.6-1.2,2.6-2.6c0-1.4-1.2-2.6-2.6-2.6c-1.4,0-2.6,1.2-2.6,2.6
			C9.5,86.6,10.7,87.8,12.1,87.8z"/>
		<path class="st1" d="M28,87.8c1.4,0,2.6-1.2,2.6-2.6c0-1.4-1.2-2.6-2.6-2.6c-1.4,0-2.6,1.2-2.6,2.6C25.4,86.6,26.6,87.8,28,87.8z"
			/>
		<path class="st1" d="M43.9,87.8c1.4,0,2.6-1.2,2.6-2.6c0-1.4-1.2-2.6-2.6-2.6c-1.4,0-2.6,1.2-2.6,2.6
			C41.3,86.6,42.4,87.8,43.9,87.8z"/>
		<path class="st1" d="M59.7,87.8c1.4,0,2.6-1.2,2.6-2.6c0-1.4-1.2-2.6-2.6-2.6c-1.4,0-2.6,1.2-2.6,2.6
			C57.1,86.6,58.3,87.8,59.7,87.8z"/>
		<path class="st1" d="M75.6,87.8c1.4,0,2.6-1.2,2.6-2.6c0-1.4-1.2-2.6-2.6-2.6S73,83.7,73,85.2C73,86.6,74.2,87.8,75.6,87.8z"/>
		<path class="st1" d="M91.5,87.8c1.4,0,2.6-1.2,2.6-2.6c0-1.4-1.2-2.6-2.6-2.6s-2.6,1.2-2.6,2.6C88.9,86.6,90,87.8,91.5,87.8z"/>
		<path class="st2" d="M1380.4,925.9c0.5,0,1,0.2,1.5,0.4c0.4,0.3,0.8,0.7,1,1.2c0.2,0.5,0.2,1,0.2,1.5s-0.3,1-0.7,1.3
			c-0.4,0.4-0.8,0.6-1.3,0.7c-0.5,0.1-1,0-1.5-0.1c-0.5-0.2-0.9-0.5-1.2-1c-0.3-0.4-0.4-0.9-0.4-1.5c0-0.7,0.3-1.4,0.8-1.9
			C1379.1,926.2,1379.7,925.9,1380.4,925.9L1380.4,925.9z"/>
		<path class="st2" d="M1380.4,910c0.5,0,1,0.2,1.5,0.4c0.4,0.3,0.8,0.7,1,1.2c0.2,0.5,0.2,1,0.2,1.5c-0.1,0.5-0.3,1-0.7,1.3
			c-0.4,0.4-0.8,0.6-1.3,0.7s-1,0-1.5-0.2c-0.5-0.2-0.9-0.5-1.2-1c-0.3-0.4-0.4-0.9-0.4-1.5c0-0.7,0.3-1.4,0.8-1.8
			S1379.7,910,1380.4,910L1380.4,910z"/>
		<path class="st2" d="M1380.4,894.1c0.5,0,1,0.2,1.5,0.4c0.4,0.3,0.8,0.7,1,1.2c0.2,0.5,0.2,1,0.2,1.5s-0.3,1-0.7,1.3
			c-0.4,0.4-0.8,0.6-1.3,0.7c-0.5,0.1-1,0-1.5-0.1c-0.5-0.2-0.9-0.5-1.2-1c-0.3-0.4-0.4-0.9-0.4-1.5c0-0.7,0.3-1.4,0.8-1.9
			C1379.1,894.4,1379.7,894.1,1380.4,894.1z"/>
		<path class="st2" d="M1380.4,878.3c0.5,0,1,0.2,1.5,0.4c0.4,0.3,0.8,0.7,1,1.2c0.2,0.5,0.2,1,0.2,1.5c-0.1,0.5-0.3,1-0.7,1.3
			c-0.4,0.4-0.8,0.6-1.3,0.7s-1,0-1.5-0.2s-0.9-0.5-1.2-1c-0.3-0.4-0.4-0.9-0.4-1.5c0-0.7,0.3-1.4,0.8-1.8
			S1379.7,878.3,1380.4,878.3L1380.4,878.3z"/>
		<path class="st2" d="M1380.4,862.4c0.5,0,1,0.2,1.5,0.4c0.4,0.3,0.8,0.7,1,1.2c0.2,0.5,0.2,1,0.2,1.5c-0.1,0.5-0.3,1-0.7,1.3
			c-0.4,0.4-0.8,0.6-1.3,0.7c-0.5,0.1-1,0-1.5-0.1c-0.5-0.2-0.9-0.5-1.2-1c-0.3-0.4-0.4-0.9-0.4-1.5c0-0.7,0.3-1.4,0.8-1.9
			C1379.1,862.7,1379.7,862.4,1380.4,862.4z"/>
		<path class="st2" d="M1380.4,846.5c0.5,0,1,0.2,1.5,0.4c0.4,0.3,0.8,0.7,1,1.2c0.2,0.5,0.2,1,0.2,1.5s-0.3,1-0.7,1.3
			c-0.4,0.4-0.8,0.6-1.3,0.7s-1,0-1.5-0.2s-0.9-0.5-1.2-1c-0.3-0.4-0.4-0.9-0.4-1.5c0-0.7,0.3-1.4,0.8-1.8
			S1379.7,846.5,1380.4,846.5z"/>
		<path class="st2" d="M1395.5,925.9c0.5,0,1,0.1,1.5,0.4c0.4,0.3,0.8,0.7,1,1.2c0.2,0.5,0.2,1,0.2,1.5c-0.1,0.5-0.3,1-0.7,1.3
			c-0.4,0.4-0.8,0.6-1.3,0.7c-0.5,0.1-1,0.1-1.5-0.1c-0.5-0.2-0.9-0.5-1.2-1c-0.3-0.4-0.4-0.9-0.4-1.5c0-0.7,0.3-1.4,0.8-1.8
			C1394.1,926.2,1394.8,925.9,1395.5,925.9L1395.5,925.9z"/>
		<path class="st2" d="M1395.5,910c0.5,0,1,0.1,1.5,0.4c0.4,0.3,0.8,0.7,1,1.2c0.2,0.5,0.2,1,0.2,1.5c-0.1,0.5-0.4,1-0.7,1.3
			c-0.4,0.4-0.8,0.6-1.3,0.7c-0.5,0.1-1,0-1.5-0.2c-0.5-0.2-0.9-0.5-1.2-1c-0.3-0.4-0.4-0.9-0.4-1.5c0-0.7,0.3-1.3,0.8-1.8
			C1394.1,910.3,1394.8,910,1395.5,910L1395.5,910z"/>
		<path class="st2" d="M1395.5,894.1c0.5,0,1,0.1,1.5,0.4c0.4,0.3,0.8,0.7,1,1.2c0.2,0.5,0.2,1,0.2,1.5c-0.1,0.5-0.3,1-0.7,1.3
			c-0.4,0.4-0.8,0.6-1.3,0.7c-0.5,0.1-1,0.1-1.5-0.1c-0.5-0.2-0.9-0.5-1.2-1c-0.3-0.4-0.4-0.9-0.4-1.5c0-0.7,0.3-1.4,0.8-1.8
			C1394.1,894.4,1394.8,894.1,1395.5,894.1L1395.5,894.1z"/>
		<path class="st2" d="M1395.5,878.3c0.5,0,1,0.1,1.5,0.4c0.4,0.3,0.8,0.7,1,1.2c0.2,0.5,0.2,1,0.2,1.5c-0.1,0.5-0.4,1-0.7,1.3
			c-0.4,0.4-0.8,0.6-1.3,0.7c-0.5,0.1-1,0-1.5-0.2c-0.5-0.2-0.9-0.5-1.2-1c-0.3-0.4-0.4-0.9-0.4-1.5c0-0.7,0.3-1.3,0.8-1.8
			C1394.1,878.6,1394.8,878.3,1395.5,878.3L1395.5,878.3z"/>
		<path class="st2" d="M1395.5,862.4c0.5,0,1,0.1,1.5,0.4c0.4,0.3,0.8,0.7,1,1.2c0.2,0.5,0.2,1,0.2,1.5c-0.1,0.5-0.3,1-0.7,1.3
			c-0.4,0.4-0.8,0.6-1.3,0.7c-0.5,0.1-1,0.1-1.5-0.1c-0.5-0.2-0.9-0.5-1.2-1c-0.3-0.4-0.4-0.9-0.4-1.5c0-0.7,0.3-1.4,0.8-1.8
			C1394.1,862.7,1394.8,862.4,1395.5,862.4L1395.5,862.4z"/>
		<path class="st2" d="M1395.5,846.5c0.5,0,1,0.1,1.5,0.4c0.4,0.3,0.8,0.7,1,1.2c0.2,0.5,0.2,1,0.2,1.5c-0.1,0.5-0.4,1-0.7,1.3
			c-0.4,0.4-0.8,0.6-1.3,0.7c-0.5,0.1-1,0-1.5-0.2c-0.5-0.2-0.9-0.5-1.2-1c-0.3-0.4-0.4-0.9-0.4-1.5c0-0.7,0.3-1.3,0.8-1.8
			C1394.1,846.8,1394.8,846.5,1395.5,846.5L1395.5,846.5z"/>
		<path class="st2" d="M1410.5,925.9c0.5,0,1,0.1,1.5,0.4c0.4,0.3,0.8,0.7,1,1.2c0.2,0.5,0.2,1,0.2,1.5c-0.1,0.5-0.3,1-0.7,1.3
			c-0.4,0.4-0.8,0.6-1.3,0.7c-0.5,0.1-1,0.1-1.5-0.1c-0.5-0.2-0.9-0.5-1.2-1c-0.3-0.4-0.4-0.9-0.4-1.5c0-0.7,0.3-1.4,0.8-1.8
			C1409.2,926.2,1409.8,925.9,1410.5,925.9L1410.5,925.9z"/>
		<path class="st2" d="M1410.5,910c0.5,0,1,0.1,1.5,0.4c0.4,0.3,0.8,0.7,1,1.2c0.2,0.5,0.2,1,0.2,1.5c-0.1,0.5-0.3,1-0.7,1.3
			c-0.4,0.4-0.8,0.6-1.3,0.7c-0.5,0.1-1,0-1.5-0.2c-0.5-0.2-0.9-0.5-1.2-1c-0.3-0.4-0.4-0.9-0.4-1.5c0-0.7,0.3-1.3,0.8-1.8
			C1409.2,910.3,1409.8,910,1410.5,910L1410.5,910z"/>
		<path class="st2" d="M1410.5,894.1c0.5,0,1,0.1,1.5,0.4c0.4,0.3,0.8,0.7,1,1.2c0.2,0.5,0.2,1,0.2,1.5c-0.1,0.5-0.3,1-0.7,1.3
			c-0.4,0.4-0.8,0.6-1.3,0.7c-0.5,0.1-1,0.1-1.5-0.1c-0.5-0.2-0.9-0.5-1.2-1c-0.3-0.4-0.4-0.9-0.4-1.5c0-0.7,0.3-1.4,0.8-1.8
			C1409.2,894.4,1409.8,894.1,1410.5,894.1L1410.5,894.1z"/>
		<path class="st2" d="M1410.5,878.3c0.5,0,1,0.1,1.5,0.4c0.4,0.3,0.8,0.7,1,1.2c0.2,0.5,0.2,1,0.2,1.5c-0.1,0.5-0.3,1-0.7,1.3
			c-0.4,0.4-0.8,0.6-1.3,0.7c-0.5,0.1-1,0-1.5-0.2c-0.5-0.2-0.9-0.5-1.2-1c-0.3-0.4-0.4-0.9-0.4-1.5c0-0.7,0.3-1.3,0.8-1.8
			C1409.2,878.6,1409.8,878.3,1410.5,878.3L1410.5,878.3z"/>
		<path class="st2" d="M1410.5,862.4c0.5,0,1,0.1,1.5,0.4c0.4,0.3,0.8,0.7,1,1.2c0.2,0.5,0.2,1,0.2,1.5c-0.1,0.5-0.3,1-0.7,1.3
			c-0.4,0.4-0.8,0.6-1.3,0.7c-0.5,0.1-1,0.1-1.5-0.1c-0.5-0.2-0.9-0.5-1.2-1c-0.3-0.4-0.4-0.9-0.4-1.5c0-0.7,0.3-1.4,0.8-1.8
			C1409.2,862.7,1409.8,862.4,1410.5,862.4L1410.5,862.4z"/>
		<path class="st2" d="M1410.5,846.5c0.5,0,1,0.1,1.5,0.4c0.4,0.3,0.8,0.7,1,1.2c0.2,0.5,0.2,1,0.2,1.5c-0.1,0.5-0.3,1-0.7,1.3
			c-0.4,0.4-0.8,0.6-1.3,0.7c-0.5,0.1-1,0-1.5-0.2c-0.5-0.2-0.9-0.5-1.2-1c-0.3-0.4-0.4-0.9-0.4-1.5c0-0.7,0.3-1.3,0.8-1.8
			C1409.2,846.8,1409.8,846.5,1410.5,846.5L1410.5,846.5z"/>
		<path class="st2" d="M96.7,952.3c0.5,0,1,0.1,1.5,0.4c0.4,0.3,0.8,0.7,1,1.2c0.2,0.5,0.3,1,0.2,1.5s-0.3,1-0.7,1.3
			c-0.4,0.4-0.8,0.6-1.3,0.7c-0.5,0.1-1,0.1-1.5-0.1c-0.5-0.2-0.9-0.5-1.2-1c-0.3-0.4-0.4-0.9-0.4-1.5c0-0.7,0.3-1.4,0.8-1.8
			C95.3,952.6,96,952.3,96.7,952.3L96.7,952.3z"/>
		<path class="st2" d="M96.7,936.4c0.5,0,1,0.1,1.5,0.4c0.4,0.3,0.8,0.7,1,1.2c0.2,0.5,0.3,1,0.2,1.5c-0.1,0.5-0.4,1-0.7,1.3
			c-0.4,0.4-0.8,0.6-1.3,0.7c-0.5,0.1-1,0-1.5-0.2c-0.5-0.2-0.9-0.5-1.2-1c-0.3-0.4-0.4-0.9-0.4-1.5c0-0.7,0.3-1.3,0.8-1.8
			C95.3,936.7,96,936.4,96.7,936.4L96.7,936.4z"/>
		<path class="st2" d="M96.7,920.6c0.5,0,1,0.1,1.5,0.4c0.4,0.3,0.8,0.7,1,1.2c0.2,0.5,0.3,1,0.2,1.5c-0.1,0.5-0.3,1-0.7,1.3
			c-0.4,0.4-0.8,0.6-1.3,0.7c-0.5,0.1-1,0.1-1.5-0.1c-0.5-0.2-0.9-0.5-1.2-1c-0.3-0.4-0.4-0.9-0.4-1.5c0-0.7,0.3-1.4,0.8-1.8
			C95.3,920.8,96,920.6,96.7,920.6L96.7,920.6z"/>
		<path class="st2" d="M96.7,904.7c0.5,0,1,0.1,1.5,0.4c0.4,0.3,0.8,0.7,1,1.2c0.2,0.5,0.3,1,0.2,1.5c-0.1,0.5-0.4,1-0.7,1.3
			c-0.4,0.4-0.8,0.6-1.3,0.7c-0.5,0.1-1,0-1.5-0.2c-0.5-0.2-0.9-0.5-1.2-1c-0.3-0.4-0.4-0.9-0.4-1.5c0-0.7,0.3-1.3,0.8-1.8
			C95.3,905,96,904.7,96.7,904.7L96.7,904.7z"/>
		<path class="st2" d="M96.7,888.8c0.5,0,1,0.1,1.5,0.4c0.4,0.3,0.8,0.7,1,1.2c0.2,0.5,0.3,1,0.2,1.5c-0.1,0.5-0.3,1-0.7,1.3
			c-0.4,0.4-0.8,0.6-1.3,0.7c-0.5,0.1-1,0.1-1.5-0.1c-0.5-0.2-0.9-0.5-1.2-1c-0.3-0.4-0.4-0.9-0.4-1.5c0-0.7,0.3-1.4,0.8-1.8
			C95.3,889.1,96,888.8,96.7,888.8L96.7,888.8z"/>
		<path class="st2" d="M96.7,872.9c0.5,0,1,0.1,1.5,0.4c0.4,0.3,0.8,0.7,1,1.2c0.2,0.5,0.3,1,0.2,1.5c-0.1,0.5-0.4,1-0.7,1.3
			c-0.4,0.4-0.8,0.6-1.3,0.7c-0.5,0.1-1,0-1.5-0.2c-0.5-0.2-0.9-0.5-1.2-1c-0.3-0.4-0.4-0.9-0.4-1.5c0-0.7,0.3-1.3,0.8-1.8
			C95.3,873.2,96,872.9,96.7,872.9L96.7,872.9z"/>
		<path class="st2" d="M111.8,957.5c1.4,0,2.6-1.2,2.6-2.6s-1.2-2.6-2.6-2.6s-2.6,1.2-2.6,2.6S110.3,957.5,111.8,957.5z"/>
		<path class="st2" d="M111.8,941.7c1.4,0,2.6-1.2,2.6-2.6s-1.2-2.6-2.6-2.6s-2.6,1.2-2.6,2.6S110.3,941.7,111.8,941.7z"/>
		<path class="st2" d="M111.8,925.8c1.4,0,2.6-1.2,2.6-2.6c0-1.4-1.2-2.6-2.6-2.6s-2.6,1.2-2.6,2.6
			C109.2,924.6,110.3,925.8,111.8,925.8z"/>
		<path class="st2" d="M111.8,909.9c1.4,0,2.6-1.2,2.6-2.6s-1.2-2.6-2.6-2.6s-2.6,1.2-2.6,2.6S110.3,909.9,111.8,909.9z"/>
		<path class="st2" d="M111.8,894c1.4,0,2.6-1.2,2.6-2.6c0-1.4-1.2-2.6-2.6-2.6s-2.6,1.2-2.6,2.6C109.2,892.9,110.3,894,111.8,894z"
			/>
		<path class="st2" d="M111.8,878.2c1.4,0,2.6-1.2,2.6-2.6s-1.2-2.6-2.6-2.6s-2.6,1.2-2.6,2.6S110.3,878.2,111.8,878.2z"/>
		<path class="st2" d="M126.8,952.3c0.5,0,1,0.1,1.5,0.4c0.4,0.3,0.8,0.7,1,1.2c0.2,0.5,0.3,1,0.2,1.5s-0.3,1-0.7,1.3
			s-0.8,0.6-1.3,0.7c-0.5,0.1-1,0.1-1.5-0.1c-0.5-0.2-0.9-0.5-1.2-1c-0.3-0.4-0.4-0.9-0.4-1.5c0-0.3,0.1-0.7,0.2-1
			c0.1-0.3,0.3-0.6,0.6-0.8c0.2-0.2,0.5-0.4,0.8-0.6C126.1,952.4,126.4,952.3,126.8,952.3z"/>
		<path class="st2" d="M126.8,936.4c0.5,0,1,0.1,1.5,0.4c0.4,0.3,0.8,0.7,1,1.2c0.2,0.5,0.3,1,0.2,1.5c-0.1,0.5-0.4,1-0.7,1.3
			c-0.4,0.4-0.8,0.6-1.3,0.7c-0.5,0.1-1,0-1.5-0.2c-0.5-0.2-0.9-0.5-1.2-1c-0.3-0.4-0.4-0.9-0.4-1.5c0-0.7,0.3-1.3,0.8-1.8
			C125.4,936.7,126.1,936.4,126.8,936.4z"/>
		<path class="st2" d="M126.8,920.6c0.5,0,1,0.1,1.5,0.4c0.4,0.3,0.8,0.7,1,1.2c0.2,0.5,0.3,1,0.2,1.5c-0.1,0.5-0.3,1-0.7,1.3
			s-0.8,0.6-1.3,0.7c-0.5,0.1-1,0.1-1.5-0.1c-0.5-0.2-0.9-0.5-1.2-1c-0.3-0.4-0.4-0.9-0.4-1.5c0-0.3,0.1-0.7,0.2-1
			c0.1-0.3,0.3-0.6,0.6-0.8c0.2-0.2,0.5-0.4,0.8-0.6C126.1,920.6,126.4,920.6,126.8,920.6L126.8,920.6z"/>
		<path class="st2" d="M126.8,904.7c0.5,0,1,0.1,1.5,0.4c0.4,0.3,0.8,0.7,1,1.2c0.2,0.5,0.3,1,0.2,1.5c-0.1,0.5-0.4,1-0.7,1.3
			c-0.4,0.4-0.8,0.6-1.3,0.7c-0.5,0.1-1,0-1.5-0.2c-0.5-0.2-0.9-0.5-1.2-1c-0.3-0.4-0.4-0.9-0.4-1.5c0-0.7,0.3-1.3,0.8-1.8
			C125.4,905,126.1,904.7,126.8,904.7z"/>
		<path class="st2" d="M126.8,888.8c0.5,0,1,0.1,1.5,0.4c0.4,0.3,0.8,0.7,1,1.2c0.2,0.5,0.3,1,0.2,1.5c-0.1,0.5-0.3,1-0.7,1.3
			s-0.8,0.6-1.3,0.7c-0.5,0.1-1,0.1-1.5-0.1c-0.5-0.2-0.9-0.5-1.2-1c-0.3-0.4-0.4-0.9-0.4-1.5c0-0.3,0.1-0.7,0.2-1
			c0.1-0.3,0.3-0.6,0.6-0.8c0.2-0.2,0.5-0.4,0.8-0.6C126.1,888.9,126.4,888.8,126.8,888.8L126.8,888.8z"/>
		<path class="st2" d="M126.8,872.9c0.5,0,1,0.1,1.5,0.4c0.4,0.3,0.8,0.7,1,1.2c0.2,0.5,0.3,1,0.2,1.5c-0.1,0.5-0.4,1-0.7,1.3
			c-0.4,0.4-0.8,0.6-1.3,0.7c-0.5,0.1-1,0-1.5-0.2c-0.5-0.2-0.9-0.5-1.2-1c-0.3-0.4-0.4-0.9-0.4-1.5c0-0.7,0.3-1.4,0.8-1.8
			C125.4,873.2,126.1,872.9,126.8,872.9L126.8,872.9z"/>
		<path class="st2" d="M1124.8,74.8c0.5,0,1,0.2,1.4,0.4c0.4,0.3,0.8,0.7,0.9,1.2c0.2,0.5,0.2,1,0.1,1.5c-0.1,0.5-0.3,1-0.7,1.3
			c-0.4,0.4-0.8,0.6-1.3,0.7c-0.5,0.1-1,0-1.5-0.2c-0.5-0.2-0.9-0.5-1.2-1c-0.3-0.4-0.4-0.9-0.4-1.4c0-0.3,0.1-0.7,0.2-1
			c0.1-0.3,0.3-0.6,0.6-0.8c0.2-0.2,0.5-0.4,0.8-0.6C1124.1,74.8,1124.5,74.7,1124.8,74.8z"/>
		<path class="st2" d="M1124.8,58.9c0.5,0,1,0.2,1.5,0.4c0.4,0.3,0.8,0.7,1,1.2c0.2,0.5,0.2,1,0.2,1.5c-0.1,0.5-0.4,1-0.7,1.3
			c-0.4,0.4-0.8,0.6-1.3,0.7c-0.5,0.1-1,0-1.5-0.1c-0.5-0.2-0.9-0.5-1.2-1s-0.4-0.9-0.4-1.5c0-0.3,0.1-0.7,0.2-1s0.3-0.6,0.6-0.8
			c0.2-0.2,0.5-0.4,0.8-0.6C1124.1,58.9,1124.5,58.9,1124.8,58.9z"/>
		<path class="st2" d="M1124.8,43c0.5,0,1,0.2,1.4,0.4c0.4,0.3,0.8,0.7,0.9,1.2c0.2,0.5,0.2,1,0.1,1.5c-0.1,0.5-0.3,1-0.7,1.3
			c-0.4,0.4-0.8,0.6-1.3,0.7c-0.5,0.1-1,0-1.5-0.2c-0.5-0.2-0.9-0.5-1.2-1c-0.3-0.4-0.4-0.9-0.4-1.4c0-0.3,0.1-0.7,0.2-1
			c0.1-0.3,0.3-0.6,0.6-0.8c0.2-0.2,0.5-0.4,0.8-0.6C1124.1,43.1,1124.5,43,1124.8,43z"/>
		<path class="st2" d="M1124.8,27.1c0.5,0,1,0.2,1.5,0.4c0.4,0.3,0.8,0.7,1,1.2c0.2,0.5,0.2,1,0.2,1.5c-0.1,0.5-0.4,1-0.7,1.3
			c-0.4,0.4-0.8,0.6-1.3,0.7c-0.5,0.1-1,0-1.5-0.1c-0.5-0.2-0.9-0.5-1.2-1s-0.4-0.9-0.4-1.5c0-0.3,0.1-0.7,0.2-1
			c0.1-0.3,0.3-0.6,0.6-0.8c0.2-0.2,0.5-0.4,0.8-0.6C1124.1,27.2,1124.5,27.1,1124.8,27.1z"/>
		<path class="st2" d="M1124.8,11.3c0.5,0,1,0.2,1.4,0.5c0.4,0.3,0.8,0.7,0.9,1.2c0.2,0.5,0.2,1,0.1,1.5c-0.1,0.5-0.4,1-0.7,1.3
			c-0.4,0.4-0.8,0.6-1.3,0.7c-0.5,0.1-1,0-1.5-0.2c-0.5-0.2-0.9-0.5-1.2-1c-0.3-0.4-0.4-0.9-0.4-1.5c0-0.7,0.3-1.3,0.8-1.8
			C1123.5,11.5,1124.1,11.3,1124.8,11.3L1124.8,11.3z"/>
		<path class="st2" d="M1124.8-4.6c0.7,0,1.4,0.3,1.8,0.8c0.5,0.5,0.8,1.2,0.8,1.8c0,0.7-0.3,1.3-0.8,1.8s-1.1,0.8-1.8,0.8
			c-0.7,0-1.4-0.3-1.8-0.8c-0.5-0.5-0.8-1.1-0.8-1.8c0-0.3,0.1-0.7,0.2-1s0.3-0.6,0.6-0.8c0.2-0.2,0.5-0.4,0.8-0.6
			C1124.1-4.6,1124.5-4.6,1124.8-4.6L1124.8-4.6z"/>
		<path class="st2" d="M1139.9,80c1.4,0,2.6-1.2,2.6-2.6c0-1.4-1.2-2.6-2.6-2.6c-1.4,0-2.6,1.2-2.6,2.6
			C1137.3,78.8,1138.4,80,1139.9,80z"/>
		<path class="st2" d="M1139.9,64.1c1.4,0,2.6-1.2,2.6-2.6c0-1.4-1.2-2.6-2.6-2.6c-1.4,0-2.6,1.2-2.6,2.6
			C1137.3,62.9,1138.4,64.1,1139.9,64.1z"/>
		<path class="st2" d="M1139.9,48.2c1.4,0,2.6-1.2,2.6-2.6c0-1.4-1.2-2.6-2.6-2.6c-1.4,0-2.6,1.2-2.6,2.6
			C1137.3,47.1,1138.4,48.2,1139.9,48.2z"/>
		<path class="st2" d="M1139.9,32.3c1.4,0,2.6-1.2,2.6-2.6c0-1.4-1.2-2.6-2.6-2.6c-1.4,0-2.6,1.2-2.6,2.6
			C1137.3,31.2,1138.4,32.3,1139.9,32.3z"/>
		<path class="st2" d="M1139.9,16.5c1.4,0,2.6-1.2,2.6-2.6s-1.2-2.6-2.6-2.6c-1.4,0-2.6,1.2-2.6,2.6S1138.4,16.5,1139.9,16.5z"/>
		<path class="st2" d="M1139.9,0.6c1.4,0,2.6-1.2,2.6-2.6c0-1.4-1.2-2.6-2.6-2.6c-1.4,0-2.6,1.2-2.6,2.6
			C1137.3-0.6,1138.4,0.6,1139.9,0.6z"/>
		<path class="st2" d="M1154.9,74.8c0.5,0,1,0.2,1.4,0.4c0.4,0.3,0.8,0.7,1,1.2c0.2,0.5,0.2,1,0.2,1.5c-0.1,0.5-0.3,1-0.7,1.3
			c-0.4,0.4-0.8,0.6-1.3,0.7c-0.5,0.1-1,0-1.5-0.1c-0.5-0.2-0.9-0.5-1.2-1s-0.4-0.9-0.4-1.4c0-0.7,0.3-1.3,0.8-1.8
			C1153.6,75,1154.2,74.8,1154.9,74.8z"/>
		<path class="st2" d="M1154.9,58.9c0.5,0,1,0.1,1.5,0.4c0.4,0.3,0.8,0.7,1,1.2c0.2,0.5,0.3,1,0.2,1.5c-0.1,0.5-0.3,1-0.7,1.3
			c-0.4,0.4-0.8,0.6-1.3,0.7c-0.5,0.1-1,0.1-1.5-0.1c-0.5-0.2-0.9-0.5-1.2-1c-0.3-0.4-0.4-0.9-0.4-1.5c0-0.7,0.3-1.4,0.8-1.8
			C1153.6,59.2,1154.2,58.9,1154.9,58.9L1154.9,58.9z"/>
		<path class="st2" d="M1154.9,43c0.5,0,1,0.2,1.4,0.4c0.4,0.3,0.8,0.7,1,1.2c0.2,0.5,0.2,1,0.2,1.5c-0.1,0.5-0.3,1-0.7,1.3
			c-0.4,0.4-0.8,0.6-1.3,0.7c-0.5,0.1-1,0-1.5-0.1c-0.5-0.2-0.9-0.5-1.2-1s-0.4-0.9-0.4-1.4c0-0.7,0.3-1.3,0.8-1.8
			C1153.6,43.3,1154.2,43,1154.9,43L1154.9,43z"/>
		<path class="st2" d="M1154.9,27.1c0.5,0,1,0.1,1.5,0.4s0.8,0.7,1,1.2c0.2,0.5,0.3,1,0.2,1.5s-0.3,1-0.7,1.3
			c-0.4,0.4-0.8,0.6-1.3,0.7s-1,0.1-1.5-0.1c-0.5-0.2-0.9-0.5-1.2-1c-0.3-0.4-0.4-0.9-0.4-1.5c0-0.7,0.3-1.4,0.8-1.8
			C1153.6,27.4,1154.2,27.1,1154.9,27.1L1154.9,27.1z"/>
		<path class="st2" d="M1154.9,11.3c0.5,0,1,0.2,1.4,0.4c0.4,0.3,0.8,0.7,0.9,1.2c0.2,0.5,0.2,1,0.2,1.5c-0.1,0.5-0.4,1-0.7,1.3
			c-0.4,0.4-0.8,0.6-1.3,0.7c-0.5,0.1-1,0-1.5-0.2c-0.5-0.2-0.9-0.5-1.2-1c-0.3-0.4-0.4-0.9-0.4-1.5c0-0.7,0.3-1.3,0.8-1.8
			C1153.6,11.5,1154.2,11.3,1154.9,11.3L1154.9,11.3z"/>
		<path class="st2" d="M1154.9-4.6c0.7,0,1.4,0.3,1.8,0.8c0.5,0.5,0.8,1.2,0.8,1.9c0,0.7-0.3,1.4-0.8,1.8c-0.5,0.5-1.2,0.8-1.8,0.8
			c-0.7,0-1.4-0.3-1.8-0.8c-0.5-0.5-0.8-1.1-0.8-1.8c0-0.7,0.3-1.4,0.8-1.8C1153.6-4.3,1154.2-4.6,1154.9-4.6L1154.9-4.6z"/>
		<g class="st3">
			<path class="st4" d="M1304.7,148h-4.3v4.3h4.3V148z"/>
			<path class="st4" d="M1304.7,178.2h-4.3v4.3h4.3V178.2z"/>
			<path class="st4" d="M1304.7,208.3h-4.3v4.3h4.3V208.3z"/>
			<path class="st4" d="M1304.7,238.5h-4.3v4.3h4.3V238.5z"/>
			<path class="st4" d="M1304.7,268.7h-4.3v4.3h4.3V268.7z"/>
		</g>
		<g class="st3">
			<path class="st4" d="M261.5,750h-4.3v4.3h4.3V750z"/>
			<path class="st4" d="M261.5,780.2h-4.3v4.3h4.3V780.2z"/>
			<path class="st4" d="M261.5,810.3h-4.3v4.3h4.3V810.3z"/>
			<path class="st4" d="M261.5,840.5h-4.3v4.3h4.3V840.5z"/>
			<path class="st4" d="M261.5,870.6h-4.3v4.3h4.3V870.6z"/>
		</g>
		<g class="st3">
			<path class="st4" d="M128.9,20.2h-4.3v4.3h4.3V20.2z"/>
			<path class="st4" d="M128.9,50.3h-4.3v4.3h4.3V50.3z"/>
			<path class="st4" d="M128.9,80.5h-4.3v4.3h4.3V80.5z"/>
			<path class="st4" d="M128.9,110.6h-4.3v4.3h4.3V110.6z"/>
		</g>
		<path class="st2" d="M1315.4,412.4h-21.5v7.3h21.5V412.4z"/>
		<path class="st2" d="M1301,405.4v21.5h7.3v-21.5H1301z"/>
		<path class="st2" d="M663.4,938.2H642v7.3h21.5V938.2z"/>
		<path class="st2" d="M649,931.1v21.5h7.3v-21.5H649z"/>
		<path class="st5" d="M158.1,260.6H151v-7.1h-7.3v7.1h-7.1v7.3h7.1v7.1h7.3v-7.1h7.1V260.6z"/>
		<path class="st5" d="M71.5,821.7h-7.1v-7.1h-7.3v7.1h-7.1v7.3h7.1v7.1h7.3V829h7.1V821.7z"/>
		<path class="st5" d="M764.4,879.8h-7.1v-7.1h-7.3v7.1h-7.1v7.4h7.1v7.1h7.3v-7.1h7.1V879.8z"/>
		<path class="st5" d="M310.3,703.1h-7.1v-7.1h-7.3v7.1h-7.1v7.3h7.1v7.1h7.3v-7.1h7.1V703.1z"/>
		<path class="st5" d="M1326.1,746.3h-7.1v-7.1h-7.4v7.1h-7v7.3h7v7.1h7.4v-7.1h7.1V746.3z"/>
		<path class="st5" d="M538.5,38.9h-7.1v-7.1h-7.3v7.1H517v7.3h7.1v7.1h7.3v-7.1h7.1V38.9z"/>
		<path class="st6" d="M290.7,347.3h-21.5v7.3h21.5V347.3z"/>
		<path class="st6" d="M276.3,340.3v21.5h7.3v-21.5H276.3z"/>
		<path class="st6" d="M1420.7,595h-21.5v7.3h21.5V595z"/>
		<path class="st6" d="M1406.3,587.9v21.5h7.3v-21.5H1406.3z"/>
		<path class="st6" d="M1046.4,895.5h-21.5v7.3h21.5V895.5z"/>
		<path class="st6" d="M1031.9,888.4v21.5h7.4v-21.5H1031.9z"/>
		<path class="st1" d="M231.6,18.6h-21.5V26h21.5V18.6z"/>
		<path class="st1" d="M217.2,11.5V33h7.3V11.5H217.2z"/>
		<path class="st7" d="M453.3,1028.9l105.2-110.3"/>
		<path class="st7" d="M484.9,1024L590,913.7"/>
		<path class="st7" d="M516.5,1019l105.2-110.3"/>
		<path class="st7" d="M-21.8,733.2L83.3,622.9"/>
		<path class="st7" d="M9.8,728.3l105.2-110.3"/>
		<path class="st7" d="M41.4,723.3L146.5,613"/>
		<path class="st1" d="M1293.1,42.4c11.1-11.1,11.1-29.2,0-40.3c-11.1-11.1-29.2-11.1-40.3,0c-11.1,11.1-11.1,29.2,0,40.3
			C1263.8,53.6,1281.9,53.6,1293.1,42.4z"/>
		<path class="st1" d="M170.3,465.3c13.4-8.3,17.5-25.9,9.3-39.3c-8.3-13.4-25.9-17.5-39.3-9.3c-13.4,8.3-17.5,25.9-9.3,39.3
			C139.4,469.4,156.9,473.5,170.3,465.3z"/>
		<path class="st2" d="M1168.4,1022.3c15.8,0,28.5-12.8,28.5-28.5c0-15.8-12.8-28.5-28.5-28.5s-28.5,12.8-28.5,28.5
			C1139.9,1009.5,1152.7,1022.3,1168.4,1022.3z"/>
		<path class="st2" d="M325,1034c15.8,0,28.5-12.8,28.5-28.5c0-15.8-12.8-28.5-28.5-28.5s-28.5,12.8-28.5,28.5
			C296.5,1021.2,309.3,1034,325,1034z"/>
	</g>
</g>
<image style="overflow:visible;" width="1440" height="1024" xlink:href="C:\Users\Ebishen\Downloads\Frame.png" >
</image>
</svg>
